PathFileType	4	(x/y/z)	S08_SL_Cal_T01
DataRate	CameraRate	NumFrames	NumMarkers	Units	OrigDataRate	OrigDataStartFrame	OrigNumFrames
240	240	5	51	mm	240	2101	2400
Frame#	Time	Sternum			R.Acromium			L.Acromium			Top.Head			R.ASIS			L.ASIS			R.PSIS			L.PSIS			R.Great.Tro			L.Great.Tro			R.Iliac.Crest			L.Iliac.Crest			V.Sacral			R.Thigh.Upper.Post			R.Thigh.Lower.Ant			R.Thigh.Lower.Post			R.Thigh.Upper.Ant			R.Knee.Lat			R.Knee.Med			R.Shank.Upper.Post			R.Shank.Lower.Ant			R.Shank.Lower.Post			R.Shank.Upper.Ant			R.Ankle.Lat			R.Ankle.Med			R.Heel.Upper			R.Heel.Med			R.Heel.Lat			R.Toe.Lat			R.Toe.Med			R.Toe.Tip			L.Thigh.Upper.Post			L.Thigh.Lower.Ant			L.Thigh.Lower.Post			L.Thigh.Upper.Ant			L.Knee.Lat			L.Knee.Med			L.Shank.Upper.Post			L.Shank.Lower.Ant			L.Shank.Lower.Post			L.Shank.Upper.Ant			L.Ankle.Lat			L.Ankle.Med			L.Heel.Upper			L.Heel.Med			L.Heel.Lat			L.Toe.Lat			L.Toe.Med			L.Toe.Tip			Cervical.Spine			Back			
		X1	Y1	Z1	X2	Y2	Z2	X3	Y3	Z3	X4	Y4	Z4	X5	Y5	Z5	X6	Y6	Z6	X7	Y7	Z7	X8	Y8	Z8	X9	Y9	Z9	X10	Y10	Z10	X11	Y11	Z11	X12	Y12	Z12	X13	Y13	Z13	X14	Y14	Z14	X15	Y15	Z15	X16	Y16	Z16	X17	Y17	Z17	X18	Y18	Z18	X19	Y19	Z19	X20	Y20	Z20	X21	Y21	Z21	X22	Y22	Z22	X23	Y23	Z23	X24	Y24	Z24	X25	Y25	Z25	X26	Y26	Z26	X27	Y27	Z27	X28	Y28	Z28	X29	Y29	Z29	X30	Y30	Z30	X31	Y31	Z31	X32	Y32	Z32	X33	Y33	Z33	X34	Y34	Z34	X35	Y35	Z35	X36	Y36	Z36	X37	Y37	Z37	X38	Y38	Z38	X39	Y39	Z39	X40	Y40	Z40	X41	Y41	Z41	X42	Y42	Z42	X43	Y43	Z43	X44	Y44	Z44	X45	Y45	Z45	X46	Y46	Z46	X47	Y47	Z47	X48	Y48	Z48	X49	Y49	Z49	X50	Y50	Z50	X51	Y51	Z51	

2101	8.75	567.13	1246	330.84	425.15	1483.5	498.19	421.04	1498.5	163.32	454.95	1805.5	342.55	536.63	1021.1	435.01	544.85	1025.2	201.75	340.61	1052.4	354.26	347.07	1060.4	261.53	453.05	925	501.8	440.06	928.95	136.33	442.25	1092.4	478.72	458.4	1110.8	174.69	324.14	1018.7	304.75	400.29	737.67	514.77	459.51	622.93	500.23	391.84	646.88	509.39	476.95	716.83	508.76	410.17	530.27	499.61	390.21	518.54	373.2	327.61	355.68	524.94	390.34	291.79	518.1	327.47	278.35	525.68	392.76	368.82	518.35	335.5	103.09	509.07	368.15	112.33	434.02	291.36	66.276	463.93	305.6	39.524	438.18	294.91	42.748	499.33	NaN	NaN	NaN	491.66	44.195	440.63	554.15	59.112	490.98	396.41	737.82	121.6	466.85	633.29	125.52	399.4	646.41	124.09	466.96	722.4	115.07	397.65	534.35	129.42	407.29	513.84	253.98	322.98	358.45	110.85	389.83	268.5	111.39	319.87	284.19	117.52	386.86	345.15	106.8	345.87	105.59	103.12	375.23	103	185.69	295.15	76.32	150.52	311.41	42.193	179.53	301.66	48.881	116.63	475.18	38.415	67.369	503.07	44.045	180.53	562.61	58.979	126.89	356.83	1525.7	321.2	333.69	1243.8	335.23
2102	8.7542	567.14	1246	330.84	425.17	1483.5	498.19	421.04	1498.5	163.32	454.97	1805.5	342.57	536.63	1021.1	435	544.85	1025.2	201.73	340.62	1052.4	354.25	347.07	1060.4	261.52	453.05	925	501.78	440.06	928.95	136.32	442.22	1092.4	478.71	458.4	1110.8	174.68	324.14	1018.7	304.74	400.29	737.67	514.76	459.51	622.93	500.22	391.84	646.88	509.38	476.96	716.83	508.75	410.18	530.27	499.61	390.22	518.54	373.19	327.62	355.68	524.94	390.35	291.79	518.09	327.47	278.36	525.68	392.76	368.82	518.35	335.5	103.09	509.06	368.15	112.33	434.02	291.36	66.276	463.93	305.6	39.524	438.18	294.91	42.75	499.33	NaN	NaN	NaN	491.66	44.195	440.63	554.15	59.112	490.98	396.42	737.82	121.58	466.86	633.29	125.51	399.4	646.41	124.08	466.96	722.4	115.06	397.66	534.35	129.41	407.3	513.84	253.97	322.99	358.46	110.84	389.83	268.5	111.39	319.87	284.19	117.52	386.86	345.15	106.79	345.87	105.59	103.12	375.23	102.99	185.69	295.15	76.319	150.52	311.41	42.193	179.53	301.66	48.88	116.63	475.18	38.415	67.37	503.07	44.045	180.53	562.61	58.98	126.89	356.84	1525.7	321.2	333.69	1243.8	335.24
2103	8.7583	567.14	1246	330.84	425.18	1483.5	498.19	421.04	1498.5	163.32	454.99	1805.5	342.58	536.64	1021.1	434.98	544.85	1025.2	201.72	340.62	1052.4	354.24	347.07	1060.4	261.51	453.06	925	501.77	440.06	928.95	136.31	442.19	1092.4	478.7	458.4	1110.8	174.67	324.14	1018.7	304.73	400.3	737.67	514.74	459.52	622.93	500.21	391.85	646.88	509.37	476.96	716.83	508.74	410.19	530.27	499.6	390.23	518.54	373.18	327.62	355.68	524.93	390.35	291.79	518.09	327.48	278.36	525.68	392.76	368.82	518.34	335.5	103.09	509.06	368.16	112.33	434.02	291.36	66.277	463.93	305.6	39.525	438.18	294.91	42.751	499.33	NaN	NaN	NaN	491.66	44.194	440.63	554.15	59.112	490.98	396.42	737.82	121.57	466.86	633.29	125.5	399.41	646.41	124.07	466.96	722.4	115.05	397.66	534.35	129.41	407.3	513.85	253.96	322.99	358.46	110.84	389.83	268.5	111.38	319.87	284.19	117.52	386.86	345.15	106.79	345.87	105.58	103.12	375.23	102.99	185.69	295.15	76.319	150.52	311.41	42.193	179.53	301.66	48.878	116.63	475.18	38.414	67.371	503.07	44.046	180.53	562.61	58.981	126.89	356.84	1525.7	321.2	333.69	1243.8	335.24
2104	8.7625	567.14	1246	330.83	425.2	1483.5	498.18	421.03	1498.5	163.32	455.01	1805.5	342.6	536.64	1021.1	434.97	544.85	1025.2	201.71	340.62	1052.4	354.23	347.07	1060.4	261.5	453.06	925	501.76	440.06	928.96	136.29	442.15	1092.4	478.69	458.4	1110.8	174.66	324.14	1018.7	304.72	400.3	737.67	514.73	459.53	622.93	500.2	391.85	646.88	509.36	476.96	716.83	508.73	410.19	530.27	499.59	390.24	518.54	373.17	327.63	355.68	524.93	390.35	291.79	518.09	327.48	278.37	525.68	392.77	368.82	518.33	335.5	103.09	509.06	368.16	112.33	434.02	291.36	66.277	463.92	305.6	39.525	438.18	294.91	42.751	499.33	NaN	NaN	NaN	491.66	44.194	440.63	554.15	59.112	490.98	396.42	737.82	121.56	466.86	633.29	125.49	399.41	646.41	124.06	466.97	722.4	115.04	397.66	534.35	129.4	407.31	513.85	253.96	322.99	358.46	110.84	389.83	268.5	111.38	319.87	284.19	117.52	386.86	345.15	106.79	345.87	105.58	103.12	375.23	102.99	185.69	295.15	76.318	150.52	311.41	42.193	179.53	301.66	48.877	116.63	475.18	38.414	67.371	503.07	44.046	180.53	562.61	58.982	126.89	356.84	1525.7	321.2	333.7	1243.8	335.25
2105	8.7667	567.14	1246	330.83	425.21	1483.5	498.18	421.03	1498.5	163.32	455.02	1805.5	342.61	536.64	1021.1	434.96	544.85	1025.2	201.69	340.62	1052.4	354.22	347.08	1060.4	261.49	453.07	925	501.75	440.07	928.96	136.28	442.11	1092.4	478.67	458.41	1110.8	174.65	324.14	1018.7	304.71	400.31	737.67	514.72	459.53	622.93	500.19	391.86	646.88	509.35	476.97	716.83	508.72	410.2	530.27	499.58	390.25	518.53	373.16	327.63	355.68	524.92	390.36	291.79	518.08	327.48	278.37	525.68	392.77	368.82	518.32	335.5	103.09	509.06	368.16	112.33	434.01	291.36	66.278	463.92	305.6	39.526	438.18	294.91	42.752	499.33	NaN	NaN	NaN	491.66	44.193	440.63	554.15	59.112	490.98	396.43	737.82	121.55	466.87	633.3	125.48	399.42	646.41	124.05	466.97	722.4	115.02	397.67	534.35	129.39	407.31	513.85	253.95	322.99	358.46	110.83	389.83	268.49	111.38	319.87	284.19	117.51	386.86	345.15	106.78	345.87	105.58	103.12	375.23	102.99	185.69	295.15	76.318	150.52	311.41	42.193	179.53	301.66	48.876	116.63	475.18	38.413	67.372	503.07	44.046	180.54	562.61	58.983	126.89	356.84	1525.7	321.2	333.7	1243.8	335.26
